<svg width="339" height="108" viewBox="0 0 339 108" fill="none" xmlns="http://www.w3.org/2000/svg">
<path d="M154.824 28.456V38.32H141.432V79H129.12V38.32H115.728V28.456H154.824ZM179.291 79.576C175.355 79.576 171.803 78.736 168.635 77.056C165.515 75.376 163.043 72.976 161.219 69.856C159.443 66.736 158.555 63.088 158.555 58.912C158.555 54.784 159.467 51.16 161.291 48.04C163.115 44.872 165.611 42.448 168.779 40.768C171.947 39.088 175.499 38.248 179.435 38.248C183.371 38.248 186.923 39.088 190.091 40.768C193.259 42.448 195.755 44.872 197.579 48.04C199.403 51.16 200.315 54.784 200.315 58.912C200.315 63.04 199.379 66.688 197.507 69.856C195.683 72.976 193.163 75.376 189.947 77.056C186.779 78.736 183.227 79.576 179.291 79.576ZM179.291 68.92C181.643 68.92 183.635 68.056 185.267 66.328C186.947 64.6 187.787 62.128 187.787 58.912C187.787 55.696 186.971 53.224 185.339 51.496C183.755 49.768 181.787 48.904 179.435 48.904C177.035 48.904 175.043 49.768 173.459 51.496C171.875 53.176 171.083 55.648 171.083 58.912C171.083 62.128 171.851 64.6 173.387 66.328C174.971 68.056 176.939 68.92 179.291 68.92ZM237.807 48.616V58.84H206.127V48.616H237.807ZM246.164 58.84C246.164 54.712 246.932 51.088 248.468 47.968C250.052 44.848 252.188 42.448 254.876 40.768C257.564 39.088 260.564 38.248 263.876 38.248C266.516 38.248 268.916 38.8 271.076 39.904C273.284 41.008 275.012 42.496 276.26 44.368V25.72H288.572V79H276.26V73.24C275.108 75.16 273.452 76.696 271.292 77.848C269.18 79 266.708 79.576 263.876 79.576C260.564 79.576 257.564 78.736 254.876 77.056C252.188 75.328 250.052 72.904 248.468 69.784C246.932 66.616 246.164 62.968 246.164 58.84ZM276.26 58.912C276.26 55.84 275.396 53.416 273.668 51.64C271.988 49.864 269.924 48.976 267.476 48.976C265.028 48.976 262.94 49.864 261.212 51.64C259.532 53.368 258.692 55.768 258.692 58.84C258.692 61.912 259.532 64.36 261.212 66.184C262.94 67.96 265.028 68.848 267.476 68.848C269.924 68.848 271.988 67.96 273.668 66.184C275.396 64.408 276.26 61.984 276.26 58.912ZM315.768 79.576C311.832 79.576 308.28 78.736 305.112 77.056C301.992 75.376 299.52 72.976 297.696 69.856C295.92 66.736 295.032 63.088 295.032 58.912C295.032 54.784 295.944 51.16 297.768 48.04C299.592 44.872 302.088 42.448 305.256 40.768C308.424 39.088 311.976 38.248 315.912 38.248C319.848 38.248 323.4 39.088 326.568 40.768C329.736 42.448 332.232 44.872 334.056 48.04C335.88 51.16 336.792 54.784 336.792 58.912C336.792 63.04 335.856 66.688 333.984 69.856C332.16 72.976 329.64 75.376 326.424 77.056C323.256 78.736 319.704 79.576 315.768 79.576ZM315.768 68.92C318.12 68.92 320.112 68.056 321.744 66.328C323.424 64.6 324.264 62.128 324.264 58.912C324.264 55.696 323.448 53.224 321.816 51.496C320.232 49.768 318.264 48.904 315.912 48.904C313.512 48.904 311.52 49.768 309.936 51.496C308.352 53.176 307.56 55.648 307.56 58.912C307.56 62.128 308.328 64.6 309.864 66.328C311.448 68.056 313.416 68.92 315.768 68.92Z" fill="black"/>
<path d="M37.5 49.8333L50 62.3333L91.6667 20.6667" stroke="#994FF3" stroke-width="8" stroke-linecap="round" stroke-linejoin="round"/>
<path d="M87.5 54V83.1667C87.5 85.3768 86.622 87.4964 85.0592 89.0592C83.4964 90.622 81.3768 91.5 79.1667 91.5H20.8333C18.6232 91.5 16.5036 90.622 14.9408 89.0592C13.378 87.4964 12.5 85.3768 12.5 83.1667V24.8333C12.5 22.6232 13.378 20.5036 14.9408 18.9408C16.5036 17.378 18.6232 16.5 20.8333 16.5H66.6667" stroke="black" stroke-width="8" stroke-linecap="round" stroke-linejoin="round"/>
</svg>
