<svg width="386" height="402" viewBox="0 0 386 402" fill="none" xmlns="http://www.w3.org/2000/svg">
<g clip-path="url(#clip0)">
<path d="M354.025 343.924L336.344 360.197L350.395 336.626C339.325 316.555 321.219 299.21 321.219 299.21C321.219 299.21 283.656 335.189 283.656 363.471C283.656 391.753 300.474 401.628 321.219 401.628C341.964 401.628 358.782 391.753 358.782 363.471C358.782 357.176 356.918 350.5 354.025 343.924Z" fill="#FFFFFE"/>
<path d="M331.797 361.078V362.472C331.714 378.676 328.98 391.319 323.617 400.222C323.541 400.353 323.458 400.477 323.382 400.609L322.781 400.243L322.208 399.884C328.159 390.27 330.264 376.682 330.34 362.548C330.347 362.092 330.354 361.63 330.347 361.168C330.326 355.184 329.961 349.132 329.374 343.252C329.332 342.796 329.284 342.334 329.236 341.872C328.421 334.115 327.248 326.703 326.047 320.264C325.964 319.808 325.874 319.353 325.784 318.904C323.706 308.014 321.587 300.126 321.104 298.38C321.049 298.166 321.014 298.048 321.007 298.021L321.663 297.835L321.67 297.828L322.333 297.641C322.34 297.669 322.457 298.062 322.65 298.794C323.389 301.527 325.308 308.946 327.192 318.732C327.275 319.173 327.365 319.629 327.448 320.084C328.428 325.309 329.388 331.147 330.147 337.275C330.34 338.814 330.513 340.333 330.665 341.83C330.72 342.293 330.768 342.755 330.81 343.211C331.445 349.567 331.774 355.522 331.797 361.078Z" fill="#F2EEF5"/>
<path d="M327.192 318.732C326.73 318.794 326.261 318.856 325.784 318.904C324.491 319.037 323.191 319.104 321.891 319.104C316.349 319.112 310.877 317.876 305.876 315.488C305.586 315.854 305.296 316.22 304.999 316.592C310.26 319.159 316.037 320.491 321.891 320.485C323.279 320.484 324.666 320.41 326.047 320.264C326.516 320.215 326.985 320.153 327.448 320.084C331.266 319.537 334.978 318.413 338.458 316.751C338.161 316.371 337.871 315.999 337.588 315.633C334.295 317.172 330.792 318.216 327.192 318.732V318.732Z" fill="#F2EEF5"/>
<path d="M330.665 341.83C330.188 341.858 329.712 341.872 329.236 341.872C329.091 341.879 328.939 341.879 328.794 341.879C322.789 341.879 316.874 340.427 311.551 337.648C306.229 334.868 301.658 330.843 298.227 325.916C297.951 326.323 297.675 326.73 297.406 327.144C300.981 332.13 305.693 336.192 311.152 338.994C316.61 341.797 322.658 343.259 328.794 343.259C328.987 343.259 329.181 343.259 329.374 343.252C329.857 343.245 330.333 343.231 330.81 343.211C338.18 342.833 345.286 340.341 351.277 336.033C351.056 335.626 350.835 335.219 350.608 334.812C344.785 339.041 337.854 341.481 330.665 341.83V341.83Z" fill="#F2EEF5"/>
<path d="M331.797 361.078C331.314 361.119 330.83 361.147 330.347 361.168C329.829 361.188 329.312 361.202 328.794 361.202C320.725 361.193 312.876 358.571 306.423 353.729C299.969 348.887 295.258 342.085 292.995 334.342C292.684 334.901 292.374 335.453 292.077 336.012C294.627 343.737 299.547 350.462 306.139 355.232C312.73 360.002 320.657 362.574 328.794 362.582C329.312 362.582 329.829 362.576 330.34 362.548C330.83 362.534 331.314 362.507 331.797 362.472C341.557 361.709 350.662 357.266 357.269 350.043C357.124 349.532 356.958 349.028 356.793 348.518C350.411 355.795 341.445 360.3 331.797 361.078V361.078Z" fill="#F2EEF5"/>
<path d="M290.443 86.9209L98.1324 62.4091C97.6144 62.3426 97.0926 62.3088 96.5703 62.3077C96.0555 62.3068 95.5411 62.3393 95.0305 62.4049C94.5208 62.4704 94.0159 62.5692 93.519 62.7007C93.0163 62.8348 92.5228 63.0013 92.0416 63.1991C91.5702 63.3926 91.1109 63.6145 90.6664 63.8637C90.2158 64.1147 89.7804 64.3921 89.3626 64.6944C88.9352 65.0047 88.5257 65.3389 88.1361 65.6955C87.7339 66.0624 87.3517 66.4507 86.9911 66.8585C86.621 67.2785 86.2726 67.7172 85.9474 68.1728C85.6189 68.6341 85.3106 69.114 85.0226 69.6124C84.7345 70.1126 84.4672 70.6326 84.2207 71.1726C83.9742 71.7125 83.7493 72.2708 83.546 72.8473C83.3355 73.4433 83.151 74.0525 82.9925 74.675C82.8341 75.2975 82.7017 75.9308 82.5954 76.5749C82.4912 77.2184 82.4114 77.8725 82.356 78.5371C82.3006 79.2017 82.2729 79.8743 82.2729 80.555C82.2751 81.2351 82.3028 81.913 82.356 82.5886C82.4092 83.2643 82.489 83.9344 82.5954 84.599C82.7028 85.2664 82.8358 85.9271 82.9942 86.5812C83.1526 87.2353 83.3371 87.8818 83.5476 88.521C83.7509 89.1385 83.9758 89.7419 84.2223 90.3312C84.4688 90.921 84.7361 91.4948 85.0242 92.0525C85.3123 92.6101 85.6206 93.1518 85.9491 93.6774C86.277 94.2052 86.6249 94.7131 86.9927 95.201C87.3606 95.6889 87.7423 96.1544 88.1378 96.5974C88.5333 97.0378 88.9422 97.4531 89.3643 97.8436C89.7864 98.234 90.221 98.5987 90.668 98.9376C91.1102 99.2732 91.5692 99.586 92.0433 99.8747C92.5206 100.166 93.0139 100.43 93.5207 100.666C94.0124 100.895 94.5171 101.095 95.0322 101.265C95.5367 101.432 96.0509 101.568 96.572 101.672C97.0878 101.774 97.6095 101.845 98.1341 101.883L290.445 115.947C291.004 115.988 291.566 115.932 292.107 115.781C292.381 115.704 292.65 115.606 292.908 115.485C293.179 115.36 293.439 115.214 293.687 115.049C293.939 114.882 294.179 114.699 294.407 114.501C294.645 114.293 294.872 114.071 295.085 113.836C295.309 113.588 295.521 113.329 295.719 113.059C295.923 112.781 296.119 112.484 296.308 112.17C296.496 111.855 296.674 111.527 296.842 111.185C297.01 110.844 297.167 110.489 297.313 110.12C297.46 109.752 297.596 109.372 297.72 108.979C297.845 108.586 297.959 108.181 298.061 107.764C298.169 107.333 298.262 106.895 298.34 106.448C298.418 106.002 298.485 105.549 298.541 105.089C298.594 104.63 298.634 104.164 298.661 103.692C298.688 103.22 298.701 102.743 298.701 102.261C298.699 101.779 298.686 101.299 298.661 100.822C298.636 100.344 298.596 99.8705 298.541 99.4003C298.487 98.9301 298.42 98.4638 298.34 98.0014C298.261 97.5389 298.167 97.0814 298.061 96.629C297.959 96.1914 297.845 95.7639 297.72 95.3463C297.597 94.9342 297.461 94.5283 297.313 94.1284C297.165 93.7286 297.008 93.3409 296.842 92.9654C296.675 92.5904 296.497 92.2266 296.308 91.8738C296.119 91.521 295.923 91.1854 295.719 90.8669C295.515 90.5485 295.303 90.2466 295.085 89.9614C294.866 89.6762 294.64 89.4092 294.407 89.1606C294.179 88.9169 293.939 88.6856 293.687 88.4677C293.44 88.2542 293.18 88.0564 292.908 87.8754C292.652 87.7045 292.384 87.5518 292.107 87.4185C291.841 87.2911 291.566 87.1845 291.284 87.0995C291.009 87.0171 290.728 86.9573 290.443 86.9209" fill="#994FF3"/>
<path d="M290.443 142.204L98.1324 137.599C97.0892 137.574 96.047 137.68 95.0305 137.916C94.5178 138.035 94.0129 138.187 93.519 138.369C93.014 138.555 92.5206 138.771 92.0416 139.017C91.5686 139.259 91.1095 139.527 90.6664 139.821C90.2147 140.12 89.7795 140.443 89.3626 140.789C88.9348 141.144 88.5254 141.52 88.1361 141.917C87.74 142.32 87.3583 142.749 86.9911 143.203C86.6238 143.658 86.2759 144.132 85.9474 144.626C85.6189 145.119 85.3106 145.631 85.0225 146.161C84.7345 146.691 84.4672 147.239 84.2207 147.804C83.9741 148.37 83.7492 148.951 83.5459 149.549C83.3354 150.167 83.1509 150.796 82.9925 151.435C82.8341 152.073 82.7017 152.72 82.5953 153.375C82.4912 154.03 82.4114 154.693 82.356 155.363C82.3006 156.033 82.2729 156.709 82.2729 157.389C82.2751 158.07 82.3028 158.745 82.356 159.415C82.4092 160.084 82.489 160.746 82.5953 161.401C82.7028 162.052 82.8357 162.697 82.9942 163.334C83.1526 163.972 83.3371 164.599 83.5476 165.217C83.7509 165.816 83.9758 166.397 84.2223 166.961C84.4688 167.525 84.7361 168.071 85.0242 168.599C85.3123 169.128 85.6205 169.638 85.949 170.129C86.277 170.618 86.6249 171.089 86.9927 171.541C87.3605 171.993 87.7422 172.419 88.1378 172.82C88.527 173.214 88.9364 173.588 89.3642 173.94C89.7812 174.283 90.2165 174.604 90.668 174.9C91.1112 175.19 91.5703 175.456 92.0432 175.695C92.5224 175.937 93.0157 176.151 93.5207 176.334C94.0148 176.513 94.5196 176.66 95.0322 176.776C95.5396 176.892 96.0539 176.975 96.5719 177.026C97.0911 177.075 97.6128 177.092 98.1341 177.076L290.443 171.227C290.725 171.218 291.007 171.186 291.284 171.13C291.564 171.073 291.839 170.993 292.106 170.891C292.383 170.786 292.651 170.659 292.908 170.513C293.179 170.358 293.439 170.186 293.687 169.996C293.939 169.803 294.179 169.595 294.407 169.373C294.645 169.14 294.872 168.895 295.085 168.638C295.303 168.377 295.514 168.096 295.719 167.795C295.923 167.495 296.119 167.178 296.308 166.846C296.496 166.511 296.674 166.165 296.842 165.806C297.01 165.447 297.167 165.076 297.313 164.692C297.46 164.303 297.596 163.907 297.72 163.504C297.845 163.1 297.959 162.685 298.061 162.258C298.169 161.82 298.262 161.374 298.34 160.919C298.418 160.465 298.485 160.005 298.541 159.539C298.594 159.072 298.634 158.602 298.661 158.127C298.688 157.652 298.701 157.174 298.701 156.692C298.699 156.214 298.686 155.736 298.661 155.259C298.636 154.783 298.596 154.312 298.541 153.847C298.487 153.381 298.42 152.921 298.34 152.469C298.26 152.016 298.167 151.569 298.061 151.126C297.958 150.698 297.844 150.282 297.72 149.876C297.595 149.471 297.459 149.077 297.313 148.695C297.167 148.313 297.011 147.942 296.843 147.584C296.675 147.226 296.497 146.881 296.309 146.548C296.12 146.215 295.923 145.9 295.719 145.601C295.516 145.303 295.304 145.023 295.085 144.761C294.873 144.506 294.646 144.262 294.407 144.031C294.18 143.811 293.94 143.605 293.688 143.413C293.44 143.225 293.18 143.054 292.909 142.901C292.652 142.757 292.383 142.632 292.106 142.529C291.839 142.429 291.564 142.351 291.284 142.296C291.007 142.242 290.725 142.211 290.443 142.204" fill="#FFFFFE"/>
<path d="M290.443 194.032L98.1324 208.093C97.6079 208.131 97.0861 208.202 96.5703 208.305C96.0493 208.409 95.5351 208.544 95.0305 208.711C94.5154 208.881 94.0107 209.081 93.519 209.31C93.0122 209.546 92.519 209.81 92.0416 210.102C91.5675 210.39 91.1086 210.703 90.6664 211.039C90.2188 211.38 89.7842 211.745 89.3626 212.133C88.941 212.522 88.5322 212.938 88.1361 213.379C87.74 213.82 87.3583 214.286 86.9911 214.775C86.6238 215.267 86.2759 215.775 85.9474 216.301C85.6189 216.826 85.3106 217.368 85.0226 217.926C84.7345 218.484 84.4672 219.058 84.2207 219.647C83.9742 220.236 83.7493 220.84 83.546 221.457C83.3355 222.095 83.151 222.742 82.9925 223.397C82.8341 224.052 82.7017 224.712 82.5954 225.376C82.4912 226.042 82.4114 226.713 82.356 227.388C82.3006 228.063 82.2729 228.741 82.2729 229.421C82.2751 230.102 82.3028 230.775 82.356 231.439C82.4092 232.104 82.489 232.758 82.5954 233.402C82.7028 234.048 82.8358 234.682 82.9942 235.303C83.1526 235.924 83.3371 236.534 83.5476 237.131C83.7509 237.708 83.9758 238.266 84.2223 238.805C84.4688 239.345 84.7361 239.865 85.0242 240.366C85.3123 240.866 85.6206 241.346 85.9491 241.805C86.2743 242.261 86.6226 242.7 86.9927 243.119C87.3534 243.527 87.7356 243.916 88.1378 244.282C88.5274 244.639 88.9368 244.973 89.3643 245.284C89.7821 245.586 90.2175 245.863 90.668 246.114C91.1126 246.363 91.5718 246.585 92.0433 246.779C92.5245 246.977 93.018 247.143 93.5207 247.277C94.0175 247.409 94.5224 247.508 95.0322 247.573C95.5428 247.639 96.0571 247.671 96.572 247.67C97.0943 247.669 97.616 247.635 98.1341 247.569L290.443 223.063C290.728 223.026 291.009 222.967 291.284 222.884C291.566 222.799 291.841 222.693 292.107 222.565C292.384 222.432 292.652 222.279 292.908 222.108C293.18 221.927 293.44 221.73 293.687 221.516C293.939 221.298 294.179 221.067 294.407 220.823C294.637 220.574 294.863 220.307 295.085 220.022C295.303 219.738 295.514 219.436 295.719 219.117C295.923 218.798 296.119 218.462 296.308 218.11C296.496 217.76 296.674 217.396 296.842 217.018C297.01 216.641 297.167 216.253 297.313 215.855C297.46 215.456 297.596 215.048 297.72 214.63C297.845 214.212 297.959 213.785 298.061 213.347C298.169 212.894 298.262 212.437 298.34 211.974C298.418 211.512 298.485 211.045 298.541 210.575C298.594 210.105 298.634 209.631 298.661 209.154C298.688 208.676 298.701 208.197 298.701 207.714C298.699 207.234 298.685 206.759 298.66 206.287C298.635 205.815 298.595 205.349 298.54 204.89C298.487 204.428 298.42 203.974 298.34 203.528C298.261 203.082 298.167 202.643 298.061 202.212C297.959 201.795 297.845 201.39 297.72 200.998C297.597 200.605 297.462 200.224 297.314 199.856C297.166 199.488 297.009 199.133 296.843 198.791C296.674 198.452 296.495 198.125 296.306 197.809C296.117 197.493 295.921 197.197 295.717 196.92C295.519 196.65 295.308 196.391 295.083 196.143C294.87 195.908 294.644 195.686 294.405 195.478C294.177 195.28 293.937 195.097 293.685 194.93C293.437 194.765 293.177 194.619 292.907 194.494C292.648 194.373 292.38 194.274 292.105 194.198C291.565 194.047 291.002 193.991 290.443 194.032" fill="#FFFFFE"/>
<path d="M185.623 196.608C186.841 198.633 188.761 200.14 191.017 200.843C193.274 201.547 195.71 201.397 197.863 200.423C200.017 199.449 201.738 197.719 202.699 195.56C203.66 193.402 203.795 190.965 203.079 188.714L240.35 112.161L222.51 101.348L190.321 182.663C190.198 182.711 190.077 182.761 189.958 182.813C189.838 182.865 189.719 182.92 189.601 182.977C189.483 183.034 189.365 183.094 189.249 183.157C189.132 183.22 189.016 183.286 188.901 183.356C186.709 184.679 185.132 186.818 184.517 189.303C183.902 191.788 184.3 194.415 185.622 196.607L185.623 196.608Z" fill="#9E616A"/>
<path d="M233.236 141.68L206.757 134.895C206.757 134.895 207.622 132.941 209.027 129.704C210.432 126.468 212.395 121.954 214.603 116.83C216.812 111.705 219.262 105.979 221.655 100.32C224.048 94.6598 226.375 89.0678 228.336 84.2207C230.296 79.3737 232.523 76.4708 234.761 74.8438C236.613 73.4364 238.946 72.8163 241.253 73.1184C243.046 73.3853 244.76 74.0376 246.277 75.0301C246.995 75.4768 247.67 75.989 248.293 76.5603L254.432 87.7219L233.236 141.68Z" fill="#CCCCCC"/>
<path d="M21.3317 135.617C20.6905 135.665 20.0524 135.748 19.4205 135.867C18.7846 135.986 18.1557 136.14 17.5368 136.328C16.9085 136.52 16.291 136.746 15.6871 137.005C15.069 137.269 14.4652 137.566 13.8781 137.894C13.3036 138.216 12.7422 138.568 12.1938 138.947C11.6453 139.326 11.1127 139.734 10.5958 140.17C10.0795 140.605 9.57847 141.068 9.09264 141.56C8.60681 142.053 8.13873 142.572 7.68836 143.118C7.23798 143.664 6.81114 144.23 6.40784 144.815C6.00454 145.401 5.62618 146.004 5.27276 146.625C4.92265 147.247 4.59524 147.885 4.29056 148.541C3.98588 149.197 3.7089 149.868 3.45962 150.554C3.19981 151.266 2.97241 151.985 2.7774 152.711C2.5824 153.438 2.41981 154.171 2.28963 154.91C2.15889 155.648 2.06085 156.392 1.99548 157.141C1.93012 157.89 1.89744 158.642 1.89746 159.396C1.89746 160.151 1.93013 160.896 1.99548 161.632C2.06083 162.367 2.15888 163.092 2.28963 163.804C2.41981 164.517 2.58241 165.217 2.7774 165.904C2.9724 166.592 3.19898 167.265 3.45713 167.924C3.70863 168.56 3.98561 169.176 4.28807 169.771C4.58705 170.359 4.9154 170.933 5.27192 171.489C5.62285 172.034 6.00173 172.561 6.40702 173.067C6.80844 173.57 7.23614 174.052 7.68834 174.51C8.13306 174.96 8.60185 175.386 9.09264 175.786C9.57324 176.178 10.0754 176.542 10.5967 176.877C11.6254 177.539 12.7267 178.081 13.8789 178.492C15.0601 178.914 16.2876 179.193 17.5351 179.323C18.1609 179.387 18.7899 179.415 19.4189 179.406C20.058 179.397 20.6961 179.352 21.3301 179.27C21.9698 179.189 22.6045 179.072 23.2313 178.921C23.86 178.769 24.4799 178.582 25.0885 178.363C25.7039 178.141 26.3072 177.887 26.8958 177.601C27.4955 177.31 28.0802 176.989 28.6474 176.639C29.1997 176.295 29.7376 175.925 30.2611 175.531C30.7846 175.137 31.2918 174.716 31.7826 174.27C32.2734 173.824 32.7473 173.353 33.2044 172.858C33.6614 172.363 34.1007 171.843 34.5223 171.299C34.9466 170.756 35.346 170.196 35.7205 169.62C36.095 169.044 36.4456 168.453 36.7725 167.847C37.0993 167.24 37.4018 166.62 37.6799 165.985C37.958 165.35 38.2114 164.702 38.4402 164.041C38.6773 163.357 38.8848 162.666 39.0626 161.97C39.2404 161.274 39.3889 160.573 39.508 159.867C39.6265 159.16 39.7157 158.45 39.7756 157.736C39.8354 157.022 39.8653 156.305 39.8653 155.585C39.8647 154.865 39.8348 154.154 39.7756 153.452C39.7163 152.749 39.6271 152.057 39.508 151.375C39.3894 150.694 39.241 150.022 39.0626 149.361C38.8842 148.7 38.6768 148.051 38.4402 147.415C38.2103 146.799 37.9569 146.202 37.6799 145.623C37.399 145.046 37.0952 144.486 36.7684 143.943C36.1213 142.87 35.3689 141.865 34.5223 140.942C34.1068 140.487 33.668 140.055 33.2077 139.646C32.7544 139.245 32.2798 138.869 31.786 138.519C31.2968 138.173 30.7889 137.853 30.2645 137.563C29.7404 137.273 29.2006 137.012 28.6474 136.782C27.5054 136.306 26.311 135.968 25.0893 135.773C24.4744 135.675 23.8543 135.613 23.2321 135.587C22.5983 135.562 21.9635 135.572 21.3309 135.619" fill="#FFFFFE"/>
<path d="M21.3317 213.707C20.6905 213.754 20.0524 213.838 19.4205 213.956C18.7846 214.075 18.1557 214.229 17.5368 214.418C16.9085 214.61 16.291 214.836 15.6871 215.094C15.069 215.359 14.4652 215.656 13.8781 215.983C13.3036 216.306 12.7422 216.657 12.1938 217.037C11.6453 217.416 11.1127 217.824 10.5958 218.26C10.0795 218.694 9.57847 219.158 9.09264 219.65C8.60681 220.143 8.13873 220.662 7.68836 221.208C7.23798 221.754 6.81114 222.32 6.40784 222.905C6.00454 223.49 5.62618 224.093 5.27276 224.714C4.92265 225.336 4.59524 225.975 4.29056 226.631C3.98588 227.287 3.7089 227.958 3.45962 228.644C3.19981 229.355 2.97241 230.075 2.7774 230.801C2.5824 231.528 2.41981 232.26 2.28963 232.999C2.15889 233.738 2.06085 234.482 1.99548 235.231C1.93012 235.979 1.89744 236.731 1.89746 237.486C1.89746 238.241 1.93013 238.986 1.99548 239.722C2.06083 240.457 2.15888 241.181 2.28963 241.894C2.41981 242.607 2.58241 243.307 2.7774 243.994C2.9724 244.681 3.19898 245.355 3.45713 246.014C3.70863 246.65 3.98561 247.266 4.28807 247.86C4.58705 248.449 4.9154 249.023 5.27192 249.578C5.62285 250.124 6.00173 250.651 6.40702 251.157C6.80844 251.66 7.23614 252.142 7.68834 252.6C8.13306 253.05 8.60185 253.476 9.09264 253.876C9.57325 254.267 10.0754 254.631 10.5967 254.967C11.6254 255.629 12.7267 256.17 13.8789 256.582C15.0601 257.003 16.2876 257.282 17.5351 257.412C18.1609 257.477 18.7899 257.505 19.4189 257.495C20.058 257.486 20.6961 257.441 21.3301 257.36C21.9698 257.278 22.6045 257.162 23.2313 257.01C23.86 256.858 24.4799 256.672 25.0885 256.453C25.7039 256.231 26.3072 255.977 26.8958 255.691C27.4955 255.4 28.0802 255.079 28.6474 254.729C29.1997 254.385 29.7376 254.015 30.2611 253.621C30.7846 253.226 31.2918 252.806 31.7826 252.36C32.2734 251.913 32.7473 251.443 33.2044 250.947C33.6614 250.452 34.1007 249.933 34.5223 249.389C34.9466 248.846 35.346 248.286 35.7205 247.71C36.095 247.134 36.4456 246.543 36.7725 245.936C37.0993 245.33 37.4018 244.709 37.6799 244.075C37.958 243.44 38.2114 242.792 38.4402 242.131C38.6773 241.446 38.8848 240.756 39.0626 240.06C39.2404 239.364 39.3889 238.662 39.508 237.956C39.6265 237.25 39.7157 236.539 39.7756 235.825C39.8354 235.112 39.8653 234.395 39.8653 233.675C39.8647 232.955 39.8348 232.244 39.7756 231.541C39.7163 230.839 39.6271 230.147 39.508 229.465C39.3894 228.783 39.241 228.112 39.0626 227.451C38.8842 226.79 38.6768 226.141 38.4402 225.504C38.2103 224.888 37.9569 224.291 37.6799 223.712C37.399 223.135 37.0952 222.575 36.7684 222.033C36.1213 220.96 35.3689 219.955 34.5223 219.031C34.1068 218.577 33.668 218.145 33.2077 217.736C32.7544 217.335 32.2798 216.959 31.786 216.609C31.2968 216.262 30.7889 215.943 30.2645 215.653C29.7404 215.362 29.2006 215.102 28.6474 214.872C27.5054 214.396 26.311 214.057 25.0893 213.862C24.4744 213.764 23.8543 213.702 23.2321 213.677C22.5983 213.651 21.9635 213.662 21.3309 213.709" fill="#FFFFFE"/>
<path d="M21.3351 51.0212C20.6974 51.0057 20.0593 51.0266 19.4239 51.0836C18.7911 51.1404 18.1622 51.2336 17.5401 51.3627C16.9146 51.4934 16.297 51.6598 15.6904 51.8611C15.0746 52.065 14.4706 52.3032 13.8815 52.5747C13.3048 52.8403 12.7425 53.1362 12.1971 53.4611C11.6463 53.7893 11.1129 54.1459 10.5992 54.5294C10.0771 54.9192 9.57517 55.3351 9.09517 55.7756C8.60713 56.2236 8.1382 56.6985 7.68838 57.2003C7.23801 57.7026 6.81116 58.2271 6.40786 58.7737C6.00456 59.3203 5.62621 59.8869 5.27278 60.4734C4.92101 61.0677 4.59278 61.6766 4.2881 62.3002C3.98342 62.9238 3.70645 63.5679 3.45716 64.2325C3.19901 64.9176 2.97243 65.614 2.77743 66.3218C2.58243 67.0296 2.41984 67.7465 2.28966 68.4726C2.15892 69.2009 2.06088 69.9353 1.99551 70.6757C1.93014 71.4162 1.89747 72.1638 1.89749 72.9187C1.89749 73.6725 1.93016 74.4201 1.99551 75.1617C2.06086 75.9033 2.1589 76.6368 2.28966 77.3624C2.41984 78.0879 2.58243 78.8037 2.77743 79.5098C2.97243 80.216 3.19901 80.911 3.45716 81.595C3.70865 82.2557 3.98563 82.8981 4.2881 83.5223C4.59279 84.1442 4.92183 84.7476 5.27523 85.3325C5.62863 85.9174 6.00701 86.4814 6.41033 87.0247C6.81306 87.5697 7.23989 88.0914 7.69083 88.5898C8.14176 89.0883 8.60987 89.559 9.09513 90.0021C9.57261 90.4409 10.0721 90.8551 10.5917 91.2432C11.1055 91.6233 11.6389 91.9763 12.1896 92.3007C12.7351 92.6222 13.2974 92.9145 13.8739 93.1763C14.4633 93.4441 15.0672 93.6785 15.6829 93.8783C16.8945 94.2703 18.1473 94.5212 19.4164 94.626C20.6872 94.7313 21.9659 94.6926 23.228 94.5105C23.8537 94.4201 24.4737 94.2942 25.0852 94.1334C25.6981 93.9719 26.3015 93.7761 26.8925 93.5469C27.4904 93.3151 28.0751 93.0508 28.6441 92.7552C29.199 92.467 29.7387 92.1507 30.2611 91.8073C30.7866 91.4616 31.2944 91.0898 31.7826 90.6933C32.2734 90.2945 32.7473 89.8697 33.2044 89.4189C33.6614 88.9681 34.1007 88.4912 34.5223 87.9884C34.9466 87.4855 35.346 86.9643 35.7205 86.4249C36.095 85.8855 36.4456 85.3283 36.7725 84.7534C37.1005 84.1786 37.4029 83.5874 37.6799 82.9798C37.9569 82.3723 38.2103 81.75 38.4402 81.1131C38.6773 80.4519 38.8848 79.7818 39.0626 79.1028C39.2404 78.4238 39.3889 77.737 39.508 77.0425C39.6265 76.3452 39.7157 75.6425 39.7756 74.9341C39.8354 74.2258 39.8653 73.5116 39.8653 72.7916C39.8648 72.0722 39.8348 71.3583 39.7756 70.65C39.7163 69.9416 39.6271 69.2408 39.508 68.5474C39.3894 67.8534 39.241 67.1672 39.0626 66.4888C38.8842 65.8103 38.6768 65.1413 38.4402 64.4817C38.2103 63.8442 37.9569 63.2226 37.6799 62.6167C37.4029 62.0108 37.0991 61.4207 36.7684 60.8464C36.4415 60.277 36.0908 59.7232 35.7163 59.1849C35.3418 58.6466 34.9438 58.1282 34.5223 57.6297C34.1035 57.1319 33.6653 56.6586 33.2077 56.21C32.7501 55.7614 32.2762 55.3397 31.7859 54.9448C31.298 54.5506 30.7905 54.1812 30.2653 53.8382C29.7428 53.498 29.203 53.185 28.6483 52.9004C28.0791 52.6081 27.4944 52.3475 26.8966 52.1195C26.3055 51.894 25.7021 51.7021 25.0893 51.5446C24.4777 51.3875 23.8576 51.2655 23.2321 51.1791C22.6018 51.0922 21.967 51.0412 21.3309 51.0262L21.3351 51.0212ZM21.3309 48.9477C24.1223 49.0241 26.86 49.7325 29.3379 51.0196C31.8004 52.3068 33.9831 54.0696 35.7596 56.2059C37.6165 58.4322 39.0627 60.9708 40.0306 63.7033C42.1035 69.5847 42.1035 75.9977 40.0306 81.8791C39.0617 84.6195 37.6158 87.167 35.7596 89.404C33.9828 91.5504 31.8004 93.3257 29.3371 94.6285C26.8624 95.9309 24.1251 96.6571 21.3301 96.7527C18.5178 96.8449 15.7221 96.2877 13.1601 95.1245C10.5738 93.9401 8.26001 92.2344 6.36379 90.1143C4.35019 87.8691 2.77422 85.2674 1.71712 82.4432C-0.572392 76.295 -0.572392 69.5284 1.71712 63.3802C2.77526 60.5475 4.35092 57.9361 6.36379 55.6792C8.25943 53.5472 10.5726 51.827 13.1601 50.625C15.7201 49.4453 18.5172 48.8702 21.3351 48.9444L21.3309 48.9477Z" fill="#994FF3"/>
<path d="M21.3334 78.7257L14.788 65.0932L16.3419 64.0814L21.7331 75.2806L44.3699 48.6803L45.7401 50.1399L21.3334 78.7257Z" fill="#994FF3"/>
<path d="M259.547 347.867L243.344 347.804L248.569 390.132L259.547 390.187V347.867Z" fill="#9E616A"/>
<path d="M262.347 400.838L226.967 400.651V400.204C226.966 399.297 227.054 398.391 227.231 397.5C227.579 395.743 228.272 394.073 229.271 392.586C230.285 391.08 231.585 389.786 233.097 388.78C234.589 387.788 236.263 387.102 238.022 386.762C238.914 386.591 239.821 386.507 240.729 386.513V386.513L262.347 386.619V400.838Z" fill="#2F2E41"/>
<path d="M207.665 347.666L191.508 347.603L196.717 389.874L207.665 389.929V347.666Z" fill="#9E616A"/>
<path d="M210.457 400.563L175.17 400.378V399.931C175.17 399.025 175.258 398.12 175.434 397.231C175.781 395.477 176.472 393.809 177.468 392.324C178.48 390.819 179.777 389.526 181.286 388.521C182.774 387.531 184.444 386.847 186.198 386.508C187.088 386.337 187.992 386.253 188.898 386.259V386.259L210.457 386.364V400.563Z" fill="#2F2E41"/>
<path d="M206.979 174.657L179.809 276.026L189.754 373.195L211.774 373.803L206.98 286.064L234.45 242.279L240.408 374.4L260.382 372.988L271.494 259.39C275.268 250.52 278.036 241.255 279.745 231.769C281.089 224.323 281.742 216.768 281.697 209.202C281.674 204.108 281.283 199.023 280.525 193.985C280.255 192.108 279.888 190.246 279.428 188.406L271.327 180.196L206.979 174.657Z" fill="#2F2E41"/>
<path d="M242.977 191.611C238.407 191.611 234.12 191.465 230.232 191.175C226.261 190.903 222.311 190.383 218.405 189.619C215.079 188.998 211.839 187.978 208.757 186.582C206.276 185.511 204.119 183.809 202.5 181.645L202.315 181.376L209.741 133.058L217.75 78.7296C218.277 75.1344 220.108 71.8585 222.894 69.5255C225.681 67.1925 229.228 65.9653 232.861 66.0775L257.941 66.8458C259.822 66.9034 261.672 67.338 263.382 68.1238C265.092 68.9096 266.626 70.0305 267.894 71.4201C269.163 72.8098 270.139 74.4399 270.766 76.2137C271.392 77.9876 271.656 79.8692 271.542 81.7469L268.249 135.777L280.394 189.071L279.534 189.191C279.188 189.237 277.855 189.413 275.767 189.648C273.038 189.955 270.252 190.231 267.485 190.469C263.571 190.807 259.741 191.072 256.102 191.258C251.486 191.493 247.062 191.607 242.977 191.611Z" fill="#CCCCCC"/>
<path d="M229.059 56.4767C229.052 56.4768 229.045 56.4768 229.039 56.4767C228.513 56.4764 227.992 56.3725 227.506 56.1708C227.02 55.9692 226.578 55.6739 226.206 55.3017C225.834 54.9295 225.54 54.4877 225.339 54.0015C225.137 53.5154 225.034 52.9944 225.035 52.4684V30.1132C225.031 26.108 225.832 22.1429 227.392 18.4537C230.446 11.2543 236.161 5.51093 243.346 2.4204C247.891 0.471741 252.847 -0.319758 257.773 0.116769C262.698 0.553296 267.438 2.20422 271.569 4.92171C275.7 7.63921 279.092 11.3384 281.441 15.6881C283.791 20.0378 285.025 24.9022 285.033 29.8457V52.235C285.033 52.7738 284.925 53.3072 284.715 53.8034C284.303 54.7714 283.533 55.5428 282.566 55.9567C282.07 56.1685 281.536 56.2784 280.997 56.2798L229.055 56.4767H229.059Z" fill="#2F2E41"/>
<path d="M268.579 22.4463C270.671 26.2666 271.584 30.6212 271.202 34.96C270.821 39.2988 269.161 43.4271 266.434 46.8237C263.707 50.2202 260.034 52.7326 255.879 54.0435C251.725 55.3544 247.274 55.405 243.091 54.1889C240.321 53.3931 237.736 52.0556 235.487 50.254C233.238 48.4524 231.368 46.2224 229.987 43.6933C227.9 39.8746 226.99 35.5235 227.373 31.1887C227.756 26.8539 229.414 22.7294 232.138 19.3353C234.862 15.9413 238.53 13.4295 242.68 12.1168C246.83 10.8041 251.276 10.7492 255.457 11.959C258.23 12.7519 260.818 14.0873 263.07 15.8877C265.323 17.6881 267.195 19.9176 268.579 22.4471V22.4463Z" fill="#9E616A"/>
<path d="M217.942 31.9325C217.94 28.7649 218.574 25.629 219.807 22.7113C222.222 17.0184 226.741 12.4771 232.423 10.0342C235.339 8.78538 238.475 8.13559 241.647 8.12344L246.122 8.10101C246.173 8.10072 246.223 8.10059 246.273 8.10063C249.372 8.10253 252.441 8.71467 255.303 9.90209C258.166 11.0895 260.766 12.829 262.956 15.0211C265.146 17.2133 266.883 19.8153 268.067 22.6784C269.251 25.5416 269.86 28.6099 269.858 31.7082V32.156L260.39 32.1942L257.162 23.1773L256.516 32.2116L251.626 32.2332L249.998 27.6841L249.671 32.239L217.947 32.3811L217.942 31.9325Z" fill="#2F2E41"/>
<path d="M179.826 78.9609C178.37 79.3172 177.007 79.9847 175.833 80.9175C174.915 81.6434 174.131 82.523 173.514 83.5171C172.298 85.4846 171.762 87.7972 171.989 90.0989C172.103 91.2617 172.419 92.3959 172.921 93.4508C173.54 94.7656 174.432 95.9341 175.536 96.8792C176.64 97.8242 177.932 98.5244 179.327 98.9334C180.722 99.3423 182.188 99.4509 183.628 99.2518C185.068 99.0527 186.449 98.5506 187.681 97.7785C187.771 97.7199 187.861 97.6604 187.95 97.6001C188.039 97.5398 188.127 97.4783 188.212 97.4155C188.299 97.3526 188.384 97.2887 188.467 97.2238C188.55 97.159 188.633 97.0931 188.715 97.0264L240.959 115.616C242.567 116.187 244.317 116.221 245.945 115.713C247.574 115.204 248.993 114.181 249.989 112.796L262.375 95.6513L247.401 85.5699L239.542 94.4948L191.73 84.9862C191.678 84.8623 191.624 84.7391 191.568 84.6164C191.512 84.4938 191.454 84.3718 191.393 84.2502C191.331 84.129 191.268 84.0084 191.202 83.8885C191.137 83.7685 191.067 83.6495 190.994 83.5315C189.853 81.6888 188.159 80.2543 186.153 79.4333C184.147 78.6123 181.932 78.447 179.826 78.9609Z" fill="#9E616A"/>
<path d="M240.385 88.8663C241.948 86.9164 244.133 84.3847 246.353 81.8737C248.573 79.3626 250.826 76.8738 252.526 75.0121C254.225 73.1503 255.369 71.9164 255.369 71.9164C256.937 69.5452 259.278 67.7899 261.995 66.9488C264.711 66.1077 267.635 66.2325 270.269 67.3021C272.904 68.3717 275.087 70.3201 276.448 72.8164C277.808 75.3126 278.263 78.2028 277.733 80.996C277.431 82.604 276.807 84.1343 275.897 85.4947C275.897 85.4947 274.193 87.7245 271.62 91.0527C269.047 94.381 265.605 98.8116 262.133 103.216C258.661 107.621 255.155 112.003 252.451 115.237C249.748 118.472 247.845 120.561 247.577 120.383L238.148 92.3596C237.88 92.1807 238.822 90.8162 240.385 88.8663Z" fill="#CCCCCC"/>
<path d="M245.982 55.7723C245.834 56.495 245.891 57.2448 246.148 57.9364C246.277 58.2903 246.455 58.6245 246.677 58.9291C246.866 59.1886 247.086 59.4248 247.331 59.6327C248.058 60.2465 248.98 60.5814 249.931 60.5773C249.99 60.5767 250.049 60.5751 250.109 60.5723C250.168 60.5695 250.227 60.5654 250.286 60.5598C250.346 60.5549 250.406 60.5482 250.465 60.5399C250.524 60.5316 250.584 60.5222 250.644 60.5117L254.004 59.9011L258.632 50.0152V59.0703L273.91 56.3206V17.8946L248.298 18.0176L248.931 18.7528C251.033 21.2197 252.413 24.2185 252.92 27.4191C253.417 30.6608 253.354 33.9637 252.735 37.1844C252.134 40.4433 251.22 43.637 250.008 46.7213C248.948 49.4538 247.732 52.123 246.365 54.7155C246.189 55.0481 246.06 55.4039 245.982 55.7723V55.7723Z" fill="#2F2E41"/>
<path d="M68.5765 402H385.169C385.389 402 385.601 401.912 385.757 401.757C385.913 401.601 386 401.39 386 401.169C386 400.949 385.913 400.738 385.757 400.582C385.601 400.426 385.389 400.339 385.169 400.339H68.5765C68.3561 400.339 68.1448 400.426 67.9889 400.582C67.8331 400.738 67.7455 400.949 67.7455 401.169C67.7455 401.39 67.8331 401.601 67.9889 401.757C68.1448 401.912 68.3561 402 68.5765 402V402Z" fill="#CACACA"/>
</g>
<defs>
<clipPath id="clip0">
<rect width="386" height="402" fill="white"/>
</clipPath>
</defs>
</svg>
